<mxfile host="app.diagrams.net" agent="Mozilla/5.0 (Windows NT 10.0; Win64; x64) AppleWebKit/537.36 (KHTML, like Gecko) Chrome/141.0.0.0 Safari/537.36" version="28.2.7">
  <diagram name="Trang-1" id="Z5s5liT9WuMVUYaOzKUq">
    <mxGraphModel dx="1042" dy="527" grid="1" gridSize="10" guides="1" tooltips="1" connect="1" arrows="1" fold="1" page="1" pageScale="1" pageWidth="827" pageHeight="1169" math="0" shadow="0">
      <root>
        <mxCell id="0" />
        <mxCell id="1" parent="0" />
        <mxCell id="mlylCfJNyC1MEC00Elza-1" style="edgeStyle=orthogonalEdgeStyle;rounded=0;orthogonalLoop=1;jettySize=auto;html=1;" edge="1" parent="1" source="mlylCfJNyC1MEC00Elza-2" target="mlylCfJNyC1MEC00Elza-4">
          <mxGeometry relative="1" as="geometry">
            <mxPoint x="630" y="240" as="targetPoint" />
          </mxGeometry>
        </mxCell>
        <mxCell id="mlylCfJNyC1MEC00Elza-2" value="bắt&amp;nbsp; đầu" style="ellipse;whiteSpace=wrap;html=1;" vertex="1" parent="1">
          <mxGeometry x="570" y="130" width="120" height="80" as="geometry" />
        </mxCell>
        <mxCell id="mlylCfJNyC1MEC00Elza-3" style="edgeStyle=orthogonalEdgeStyle;rounded=0;orthogonalLoop=1;jettySize=auto;html=1;" edge="1" parent="1" source="mlylCfJNyC1MEC00Elza-4" target="mlylCfJNyC1MEC00Elza-9">
          <mxGeometry relative="1" as="geometry">
            <mxPoint x="640" y="380" as="targetPoint" />
          </mxGeometry>
        </mxCell>
        <mxCell id="mlylCfJNyC1MEC00Elza-4" value="nhập số n" style="shape=parallelogram;perimeter=parallelogramPerimeter;whiteSpace=wrap;html=1;fixedSize=1;" vertex="1" parent="1">
          <mxGeometry x="570" y="250" width="120" height="60" as="geometry" />
        </mxCell>
        <mxCell id="mlylCfJNyC1MEC00Elza-5" style="edgeStyle=orthogonalEdgeStyle;rounded=0;orthogonalLoop=1;jettySize=auto;html=1;" edge="1" parent="1" source="mlylCfJNyC1MEC00Elza-9">
          <mxGeometry relative="1" as="geometry">
            <mxPoint x="460" y="490" as="targetPoint" />
          </mxGeometry>
        </mxCell>
        <mxCell id="mlylCfJNyC1MEC00Elza-6" value="Y" style="edgeLabel;html=1;align=center;verticalAlign=middle;resizable=0;points=[];" vertex="1" connectable="0" parent="mlylCfJNyC1MEC00Elza-5">
          <mxGeometry x="-0.4069" y="-1" relative="1" as="geometry">
            <mxPoint as="offset" />
          </mxGeometry>
        </mxCell>
        <mxCell id="mlylCfJNyC1MEC00Elza-7" style="edgeStyle=orthogonalEdgeStyle;rounded=0;orthogonalLoop=1;jettySize=auto;html=1;" edge="1" parent="1" source="mlylCfJNyC1MEC00Elza-9">
          <mxGeometry relative="1" as="geometry">
            <mxPoint x="820" y="490" as="targetPoint" />
          </mxGeometry>
        </mxCell>
        <mxCell id="mlylCfJNyC1MEC00Elza-8" value="N" style="edgeLabel;html=1;align=center;verticalAlign=middle;resizable=0;points=[];" vertex="1" connectable="0" parent="mlylCfJNyC1MEC00Elza-7">
          <mxGeometry x="-0.3938" y="-2" relative="1" as="geometry">
            <mxPoint as="offset" />
          </mxGeometry>
        </mxCell>
        <mxCell id="mlylCfJNyC1MEC00Elza-9" value="N%2=1" style="rhombus;whiteSpace=wrap;html=1;" vertex="1" parent="1">
          <mxGeometry x="570" y="370" width="120" height="80" as="geometry" />
        </mxCell>
        <mxCell id="mlylCfJNyC1MEC00Elza-10" value="số lẻ" style="shape=parallelogram;perimeter=parallelogramPerimeter;whiteSpace=wrap;html=1;fixedSize=1;" vertex="1" parent="1">
          <mxGeometry x="400" y="490" width="120" height="60" as="geometry" />
        </mxCell>
        <mxCell id="mlylCfJNyC1MEC00Elza-12" value="kết thúc" style="ellipse;whiteSpace=wrap;html=1;" vertex="1" parent="1">
          <mxGeometry x="570" y="570" width="130" height="80" as="geometry" />
        </mxCell>
        <mxCell id="mlylCfJNyC1MEC00Elza-13" style="edgeStyle=orthogonalEdgeStyle;rounded=0;orthogonalLoop=1;jettySize=auto;html=1;entryX=-0.012;entryY=0.59;entryDx=0;entryDy=0;entryPerimeter=0;" edge="1" parent="1" source="mlylCfJNyC1MEC00Elza-10">
          <mxGeometry relative="1" as="geometry">
            <mxPoint x="511.56" y="520" as="sourcePoint" />
            <mxPoint x="570" y="617.2" as="targetPoint" />
            <Array as="points">
              <mxPoint x="460" y="617" />
            </Array>
          </mxGeometry>
        </mxCell>
        <mxCell id="mlylCfJNyC1MEC00Elza-15" style="edgeStyle=orthogonalEdgeStyle;rounded=0;orthogonalLoop=1;jettySize=auto;html=1;entryX=1;entryY=0.5;entryDx=0;entryDy=0;" edge="1" parent="1" source="mlylCfJNyC1MEC00Elza-14" target="mlylCfJNyC1MEC00Elza-12">
          <mxGeometry relative="1" as="geometry">
            <Array as="points">
              <mxPoint x="820" y="610" />
            </Array>
          </mxGeometry>
        </mxCell>
        <mxCell id="mlylCfJNyC1MEC00Elza-14" value="số chẵn" style="shape=parallelogram;perimeter=parallelogramPerimeter;whiteSpace=wrap;html=1;fixedSize=1;" vertex="1" parent="1">
          <mxGeometry x="760" y="490" width="120" height="60" as="geometry" />
        </mxCell>
      </root>
    </mxGraphModel>
  </diagram>
</mxfile>
